<svg width="18" height="18" viewBox="0 0 18 18" fill="none" xmlns="http://www.w3.org/2000/svg">
<g opacity="0.7">
<path d="M9 6C9 6.19891 8.92098 6.38968 8.78033 6.53033C8.63968 6.67098 8.44891 6.75 8.25 6.75H3.75V14.25H11.25V9.75C11.25 9.55109 11.329 9.36032 11.4697 9.21967C11.6103 9.07902 11.8011 9 12 9C12.1989 9 12.3897 9.07902 12.5303 9.21967C12.671 9.36032 12.75 9.55109 12.75 9.75V14.25C12.75 14.6478 12.592 15.0294 12.3107 15.3107C12.0294 15.592 11.6478 15.75 11.25 15.75H3.75C3.35218 15.75 2.97064 15.592 2.68934 15.3107C2.40804 15.0294 2.25 14.6478 2.25 14.25V6.75C2.25 5.925 2.925 5.25 3.75 5.25H8.25C8.44891 5.25 8.63968 5.32902 8.78033 5.46967C8.92098 5.61032 9 5.80109 9 6Z" fill="#98AEEB"/>
<path d="M14.25 4.8075L6.52501 12.5325C6.45721 12.6105 6.37402 12.6736 6.28066 12.718C6.1873 12.7623 6.08579 12.7868 5.98249 12.7901C5.8792 12.7933 5.77635 12.7752 5.6804 12.7368C5.58445 12.6984 5.49746 12.6406 5.42491 12.567C5.35235 12.4934 5.29579 12.4056 5.25876 12.3091C5.22174 12.2126 5.20506 12.1095 5.20976 12.0063C5.21447 11.9031 5.24046 11.8019 5.2861 11.7092C5.33174 11.6165 5.39606 11.5342 5.47501 11.4675L13.185 3.75H10.5C10.3011 3.75 10.1103 3.67098 9.96968 3.53033C9.82903 3.38968 9.75001 3.19891 9.75001 3C9.75001 2.80109 9.82903 2.61032 9.96968 2.46967C10.1103 2.32902 10.3011 2.25 10.5 2.25H15C15.1989 2.25 15.3897 2.32902 15.5303 2.46967C15.671 2.61032 15.75 2.80109 15.75 3V7.5C15.75 7.69891 15.671 7.88968 15.5303 8.03033C15.3897 8.17098 15.1989 8.25 15 8.25C14.8011 8.25 14.6103 8.17098 14.4697 8.03033C14.329 7.88968 14.25 7.69891 14.25 7.5V4.8075Z" fill="#647ACB"/>
</g>
</svg>
